<?xml version="1.0" encoding="utf-8"?>
<!-- Generator: Adobe Illustrator 16.0.0, SVG Export Plug-In . SVG Version: 6.00 Build 0)  -->
<!DOCTYPE svg PUBLIC "-//W3C//DTD SVG 1.1//EN" "http://www.w3.org/Graphics/SVG/1.1/DTD/svg11.dtd">
<svg version="1.1" id="Layer_1" xmlns:sketch="http://www.bohemiancoding.com/sketch/ns"
	 xmlns="http://www.w3.org/2000/svg" xmlns:xlink="http://www.w3.org/1999/xlink" x="0px" y="0px" width="16px" height="16px"
	 viewBox="0 0 16 16" enable-background="new 0 0 16 16" xml:space="preserve">
<title></title>
<g id="Icons_with_numbers">
	<g id="Group" transform="translate(-240.000000, -480.000000)">
		<path id="Rectangle_153_copy" d="M243.996,480h8.008c2.207,0,3.996,1.789,3.996,3.996v8.008c0,2.207-1.789,3.996-3.996,3.996
			h-8.008c-2.207,0-3.996-1.789-3.996-3.996v-8.008C240,481.789,241.789,480,243.996,480z M244.003,481
			c-1.659,0-3.003,1.342-3.003,3.003v7.993c0,1.659,1.342,3.004,3.003,3.004h7.993c1.659,0,3.004-1.342,3.004-3.004v-7.993
			c0-1.659-1.342-3.003-3.004-3.003H244.003z"/>
	</g>
</g>
<path d="M13.093,8l-1.909,1.91c0,0-2.528,2.529-5.093-0.001c-0.222-0.222-0.399-0.468-0.555-0.72l1.367-1.366
	c0.079,0.298,0.227,0.58,0.46,0.812c1.273,1.274,2.547,0,2.547,0l1.908-1.909c0,0,1.273-1.273,0-2.546c-1.271-1.273-2.545,0-2.545,0
	s-0.639-0.635-1.91-0.637L8,2.907c0,0,2.547-2.546,5.093,0C15.639,5.454,13.093,8,13.093,8z M10.463,6.81L9.096,8.176
	C9.018,7.879,8.87,7.597,8.637,7.362C7.363,6.089,6.09,7.363,6.09,7.363l-1.909,1.91c0,0-1.273,1.271,0,2.545
	c1.273,1.272,2.546,0,2.546,0s0.606,0.684,1.927,0.621L8,13.092c0,0-2.546,2.547-5.092,0c-2.546-2.546,0-5.092,0-5.092l1.909-1.909
	c0,0,2.546-2.546,5.093,0C10.131,6.312,10.309,6.558,10.463,6.81z"/>
</svg>
